<svg width="107" height="66" viewBox="0 0 107 66" fill="none" xmlns="http://www.w3.org/2000/svg">
<path fill-rule="evenodd" clip-rule="evenodd" d="M56.634 1.34029C55.973 2.13629 55.091 5.30329 54.674 8.37829C54.257 11.4523 53.392 14.4913 52.753 15.1303C52.114 15.7693 51.591 17.0543 51.591 17.9853C51.591 18.9163 50.916 19.9373 50.091 20.2543C49.266 20.5703 48.591 21.2933 48.591 21.8613C48.591 23.2053 44.322 27.4693 43.313 27.1333C42.885 26.9903 42.275 27.5533 41.956 28.3833C41.638 29.2133 40.58 29.8923 39.606 29.8923C38.633 29.8923 37.276 30.5673 36.591 31.3923C35.906 32.2173 34.276 32.8923 32.969 32.8923C31.661 32.8923 30.591 33.3763 30.591 33.9673C30.591 34.5593 29.297 34.9073 27.716 34.7413C26.135 34.5753 24.131 35.0293 23.264 35.7483C22.33 36.5243 20.801 36.7763 19.514 36.3683C18.319 35.9883 17.06 36.0683 16.716 36.5443C16.372 37.0213 13.391 38.4813 10.091 39.7903C2.28699 42.8853 1.47399 43.7433 0.49899 49.9133C-0.69901 57.4893 0.186992 60.5553 3.95399 61.8713C14.046 65.3943 51.549 66.7403 91.591 65.0163L106.091 64.3923L105.806 51.3923C105.646 44.0993 104.822 35.3963 103.93 31.5683C102.154 23.9483 102.62 17.3033 105.208 13.3533C107.728 9.50829 105.884 9.05029 102.493 12.6783C99.185 16.2183 97.131 16.7413 96.188 14.2843C95.627 12.8213 95.33 12.8333 92.926 14.4083C89.36 16.7453 80.879 15.9213 73.647 12.5363C70.653 11.1343 65.863 9.69529 63.003 9.33829L57.801 8.68829L59.368 5.95829C61.791 1.73629 59.508 -2.12171 56.634 1.34029ZM59.591 2.70129C59.591 3.14629 58.93 4.38329 58.123 5.45129C56.68 7.35829 56.654 7.35629 56.623 5.30929C56.605 4.16329 56.891 2.92529 57.258 2.55929C58.18 1.63629 59.591 1.72229 59.591 2.70129ZM57.726 12.7893C54.635 16.1883 54.169 16.1333 55.538 12.5313C56.139 10.9513 57.308 9.89229 58.451 9.89229C60.164 9.89229 60.089 10.1913 57.726 12.7893ZM78.091 15.8433C82.995 17.7473 89.71 18.0443 92.123 16.4633C95.412 14.3083 96.262 14.4933 94.091 16.8923C92.823 18.2933 91.011 18.8923 88.041 18.8923C82.752 18.8923 71.277 15.4243 69.506 13.2903C68.33 11.8723 68.623 11.8823 72.137 13.3803C74.311 14.3073 76.991 15.4163 78.091 15.8433ZM69.249 18.9863C71.694 24.1513 73.869 25.3953 83.091 26.9013C92.215 28.3913 95.333 28.1503 97.711 25.7723L99.83 23.6533L99.439 30.5793C99.116 36.2873 98.48 38.3913 95.819 42.5363C94.044 45.3033 92.591 48.4703 92.591 49.5753C92.591 51.4533 91.727 51.6233 79.136 52.2273C71.736 52.5823 59.249 53.5993 51.386 54.4873C37.13 56.0983 15.745 55.9083 7.59099 54.0983C4.47999 53.4073 4.05799 52.9273 3.78999 49.7713C3.44399 45.6763 4.054 45.0653 11.474 42.0673C17.655 39.5703 19.81 39.3913 22.635 41.1423C24.279 42.1613 24.812 42.1343 25.52 40.9973C26.105 40.0563 27.37 39.7983 29.399 40.2043C31.586 40.6413 32.571 40.3853 33 39.2693C33.427 38.1563 34.38 37.9063 36.46 38.3633C38.828 38.8833 39.428 38.6223 39.887 36.8683C40.366 35.0363 40.739 34.9013 42.591 35.8923C44.432 36.8773 44.816 36.7493 45.274 34.9983C45.627 33.6463 46.524 33.0283 47.923 33.1733C49.224 33.3083 50.048 32.8153 50.064 31.8923C50.079 31.0673 51.103 30.2483 52.341 30.0723C53.579 29.8973 54.591 29.1093 54.591 28.3223C54.591 27.5363 55.266 26.8923 56.091 26.8923C56.975 26.8923 57.597 25.9693 57.606 24.6423C57.615 23.4043 58.041 21.7303 58.553 20.9203C59.35 19.6593 59.578 19.6953 60.144 21.1703C60.958 23.2903 64.443 23.4403 65.23 21.3903C66.236 18.7693 64.7 14.8923 62.655 14.8923C61.612 14.8923 60.557 15.4553 60.311 16.1423C60.066 16.8303 59.533 17.0843 59.128 16.7093C57.558 15.2533 59.946 13.7963 63.425 14.0873C66.67 14.3583 67.315 14.9003 69.249 18.9863ZM63.591 18.8923C63.591 20.5423 63.172 21.8923 62.659 21.8923C62.147 21.8923 61.891 20.6543 62.09 19.1423C62.54 15.7323 62.491 15.8923 63.091 15.8923C63.366 15.8923 63.591 17.2423 63.591 18.8923ZM82.799 19.7083C90.432 21.3153 90.536 21.3093 93.508 19.1113C95.159 17.8913 96.753 16.8923 97.051 16.8923C98.139 16.8923 97.552 21.5633 96.238 23.3603C95.053 24.9813 93.966 25.1333 87.483 24.5853C78.635 23.8373 73.898 22.3333 72.57 19.8533C71.158 17.2153 71.355 16.5833 73.341 17.3813C74.304 17.7683 78.56 18.8153 82.799 19.7083ZM55.591 20.3923C55.591 21.2173 54.916 21.8923 54.091 21.8923C53.266 21.8923 52.591 21.2173 52.591 20.3923C52.591 19.5673 53.266 18.8923 54.091 18.8923C54.916 18.8923 55.591 19.5673 55.591 20.3923ZM52.591 24.8923C52.591 25.4423 52.168 25.8923 51.65 25.8923C51.132 25.8923 50.431 25.4423 50.091 24.8923C49.751 24.3423 50.175 23.8923 51.032 23.8923C51.889 23.8923 52.591 24.3423 52.591 24.8923ZM48.591 27.8923C48.591 28.4423 47.889 28.8923 47.032 28.8923C46.175 28.8923 45.751 28.4423 46.091 27.8923C46.431 27.3423 47.132 26.8923 47.65 26.8923C48.168 26.8923 48.591 27.3423 48.591 27.8923ZM38.591 33.2853C38.591 33.5013 37.893 33.9463 37.039 34.2743C36.149 34.6153 35.748 34.4473 36.098 33.8813C36.685 32.9303 38.591 32.4753 38.591 33.2853ZM102.521 44.1423L102.591 51.8923H98.091C92.416 51.8923 92.251 50.4053 97.091 42.8923C99.016 39.9043 100.623 36.3193 100.661 34.9263C100.725 32.6143 100.807 32.5673 101.591 34.3923C102.064 35.4923 102.482 39.8793 102.521 44.1423ZM103.591 57.7833C103.591 61.5253 103.448 61.6923 99.841 62.1613C97.779 62.4293 86.416 62.7163 74.591 62.7993C62.766 62.8813 50.841 63.1973 48.091 63.5013C43.262 64.0343 14.637 61.6223 7.68599 60.0963C4.33199 59.3603 1.533 56.6163 2.822 55.3283C3.185 54.9653 6.35599 55.1683 9.86799 55.7803C18.357 57.2583 41.537 57.0813 54.591 55.4383C60.366 54.7113 73.753 54.0663 84.341 54.0043L103.591 53.8923V57.7833Z" fill="black"/>
</svg>
