<svg width="106" height="68" viewBox="0 0 106 68" fill="none" xmlns="http://www.w3.org/2000/svg">
<path fill-rule="evenodd" clip-rule="evenodd" d="M68.104 4.25C67.124 6.587 65.047 11.6 63.489 15.388C61.719 19.695 59.966 22.458 58.813 22.759C57.798 23.025 57.088 23.971 57.234 24.862C57.38 25.753 56.488 26.93 55.25 27.478C54.012 28.026 53 29.027 53 29.702C53 31.083 49.563 33.229 48.713 32.379C48.41 32.076 47.66 32.767 47.046 33.914C46.432 35.061 45.013 36 43.893 36C42.773 36 41.147 36.71 40.279 37.578C39.412 38.445 37.841 38.93 36.79 38.655C35.68 38.365 34.649 38.752 34.332 39.578C34.032 40.36 32.511 41 30.952 41C29.393 41 27.84 41.45 27.5 42C27.16 42.55 23.421 43.025 19.191 43.056C6.61299 43.149 2.39299 45.761 0.553989 54.593C-0.0810114 57.645 0.00699139 57.725 7.40999 60.833C24.356 67.947 25.876 68.126 66.297 67.797C94.976 67.563 103.039 67.215 104.315 66.155C105.68 65.021 105.846 63.293 105.372 55.155C105.063 49.845 103.965 42.35 102.932 38.5C101.899 34.65 100.705 27.225 100.277 22L99.5 12.5L90.882 12.856C80.64 13.279 78 12.267 78 7.919C78 4.632 74.192 0 71.489 0C70.551 0 69.149 1.761 68.104 4.25ZM73.8 4.2C75.925 6.325 75.271 10.715 72.734 11.352C71.179 11.742 69.457 13.971 67.244 18.46C65.47 22.057 63.555 25 62.989 25C62.423 25 62.802 23.313 63.831 21.25C64.861 19.188 66.966 14.237 68.509 10.25C70.053 6.263 71.605 3 71.958 3C72.311 3 73.14 3.54 73.8 4.2ZM78.042 14.139C81.531 15.958 83.244 16.195 89.49 15.722L96.834 15.167L97.555 23.819C97.951 28.577 99.114 35.401 100.138 38.982C101.162 42.563 102 47.355 102 49.63C102 54.959 101.983 54.962 76.5 55.668C61.434 56.084 53.046 55.819 42.5 54.593C22.167 52.228 21.415 51.869 28.839 48.082C32.032 46.453 32.802 46.382 34.419 47.564C36.636 49.185 38.585 48.41 37.023 46.528C35.324 44.48 38.689 43.75 41.46 45.566C43.195 46.702 44.005 46.802 44.536 45.943C44.932 45.301 44.649 44.401 43.906 43.942C41.491 42.449 45.877 41.596 48.566 43.035C51.247 44.47 53.037 43.637 51.207 41.807C50.374 40.974 50.351 40.282 51.124 39.35C52.004 38.291 52.71 38.316 54.974 39.486C58.372 41.244 59.608 40.329 57.292 37.77C54.826 35.045 57.375 33.625 61.191 35.599C64.458 37.288 65.053 35.821 62.324 32.805C61.031 31.376 60.919 30.681 61.833 29.767C62.748 28.852 63.688 28.975 65.941 30.306C68.01 31.528 69.066 31.703 69.559 30.904C70.207 29.856 69.662 29.252 66.156 27.129C64.255 25.978 71.153 12.195 73.719 12.015C73.84 12.007 75.785 12.962 78.042 14.139ZM70.676 20.402C70.002 22.159 70.807 23 73.167 23C74.333 23 75 22.273 75 21C75 18.671 71.525 18.19 70.676 20.402ZM73.5 21C73.84 21.55 73.641 22 73.059 22C72.477 22 72 21.55 72 21C72 20.45 72.198 20 72.441 20C72.684 20 73.16 20.45 73.5 21ZM78.367 26.772C70.686 32.994 74.4 44 84.18 44C91.35 44 95.755 36.904 92.64 30.372C90.136 25.12 82.717 23.249 78.367 26.772ZM87.928 27.463C91.1 29.103 92 30.798 92 35.127C92 39.013 88.04 43 84.18 43C75.404 43 72.713 31.414 80.5 27.155C83.197 25.679 84.591 25.737 87.928 27.463ZM60.417 29.357C59.774 31.032 58 31.651 58 30.2C58 29.227 60.231 26.898 60.707 27.374C60.894 27.561 60.763 28.453 60.417 29.357ZM56.75 33.25C56.522 33.938 55.486 34.664 54.449 34.865C52.818 35.181 52.744 35.013 53.904 33.615C55.49 31.704 57.344 31.466 56.75 33.25ZM51 36.893C51 38.002 47.924 39.257 47.136 38.469C46.818 38.151 47.22 37.473 48.029 36.961C49.899 35.778 51 35.753 51 36.893ZM44 40.393C44 40.609 43.325 41.045 42.5 41.362C41.675 41.678 41 41.501 41 40.969C41 40.436 41.675 40 42.5 40C43.325 40 44 40.177 44 40.393ZM37 43C37 43.55 36.213 43.993 35.25 43.985C33.754 43.972 33.718 43.828 35 43C36.887 41.78 37 41.78 37 43ZM27.984 46.884C25.971 47.972 24.343 48.345 24.128 47.768C23.615 46.388 26.004 45.034 28.984 45.015C31.27 45.001 31.19 45.151 27.984 46.884ZM22 48.5C22 50.252 21.455 51 20.178 51C17.095 51 8.96499 47.866 9.55799 46.906C9.86599 46.408 12.791 46 16.059 46C21.729 46 22 46.114 22 48.5ZM11.5 49.892C17.3 52.086 28.505 54.377 42 56.129C53.292 57.595 88.2 57.65 96 56.214C99.025 55.657 101.557 55.269 101.626 55.351C101.695 55.433 102.053 56.482 102.422 57.682C103.027 59.654 102.631 59.937 98.296 60.622C91.964 61.623 55.91 61.701 44.5 60.738C37.101 60.114 35.856 60.202 37.5 61.234C38.995 62.171 47.523 62.49 71.25 62.494C88.712 62.497 102.999 62.789 103 63.143C103 64.745 97.597 65 63.668 64.994L27.5 64.988L16.162 61.105C9.92599 58.97 4.38199 56.782 3.84299 56.243C3.20299 55.603 3.38998 54.003 4.38098 51.632C5.21498 49.634 6.03299 48 6.19899 48.001C6.36498 48.001 8.74999 48.852 11.5 49.892Z" fill="black"/>
</svg>
