<svg width="125" height="21" viewBox="0 0 125 21" fill="none" xmlns="http://www.w3.org/2000/svg">
<path d="M6.744 16L6.72 4.168H0.48V1.864H16.176V4.168H9.912V16H6.744ZM20.0711 16C18.9991 16 18.1991 15.784 17.6711 15.352C17.1591 14.92 16.9031 14.216 16.9031 13.24V8.32C16.9031 8.08 16.9191 7.792 16.9511 7.456C16.9991 7.104 17.1111 6.76 17.2871 6.424C17.4791 6.088 17.7911 5.808 18.2231 5.584C18.6711 5.36 19.2871 5.248 20.0711 5.248H26.6951C27.4951 5.248 28.1111 5.36 28.5431 5.584C28.9751 5.808 29.2791 6.088 29.4551 6.424C29.6471 6.76 29.7591 7.104 29.7911 7.456C29.8391 7.792 29.8631 8.08 29.8631 8.32V12.928C29.8631 13.216 29.8391 13.536 29.7911 13.888C29.7591 14.24 29.6471 14.576 29.4551 14.896C29.2631 15.216 28.9511 15.48 28.5191 15.688C28.0871 15.896 27.4791 16 26.6951 16H20.0711ZM20.9831 13.936H25.7831C26.5671 13.936 26.9591 13.616 26.9591 12.976V8.272C26.9591 7.632 26.5671 7.312 25.7831 7.312H20.9831C20.2151 7.312 19.8311 7.632 19.8311 8.272V12.976C19.8311 13.616 20.2151 13.936 20.9831 13.936ZM32.4947 20.464V5.248H34.4627L35.0627 5.56C35.7827 5.48 36.6387 5.408 37.6307 5.344C38.6387 5.28 39.7827 5.248 41.0627 5.248H42.2867C43.0867 5.248 43.7027 5.352 44.1347 5.56C44.5667 5.768 44.8707 6.032 45.0467 6.352C45.2387 6.672 45.3507 7.008 45.3827 7.36C45.4307 7.712 45.4547 8.032 45.4547 8.32V12.928C45.4547 13.168 45.4307 13.464 45.3827 13.816C45.3507 14.152 45.2387 14.488 45.0467 14.824C44.8707 15.16 44.5667 15.44 44.1347 15.664C43.7027 15.888 43.0867 16 42.2867 16H41.0627C39.8467 16 38.7667 15.968 37.8227 15.904C36.8787 15.84 36.0787 15.776 35.4227 15.712V20.464H32.4947ZM36.1667 13.936H41.3747C41.6787 13.936 41.9427 13.856 42.1667 13.696C42.4067 13.536 42.5267 13.296 42.5267 12.976V8.272C42.5427 7.92 42.4547 7.672 42.2627 7.528C42.0867 7.384 41.7907 7.312 41.3747 7.312H40.1747C39.1507 7.312 38.2387 7.336 37.4387 7.384C36.6547 7.416 35.9827 7.456 35.4227 7.504V13.192C35.4227 13.544 35.4547 13.76 35.5187 13.84C35.5987 13.904 35.8147 13.936 36.1667 13.936ZM56.3055 16C55.2335 16 54.4335 15.784 53.9055 15.352C53.3935 14.92 53.1375 14.216 53.1375 13.24V8.32C53.1375 8.08 53.1535 7.792 53.1855 7.456C53.2335 7.104 53.3455 6.76 53.5215 6.424C53.7135 6.088 54.0255 5.808 54.4575 5.584C54.9055 5.36 55.5215 5.248 56.3055 5.248H62.9295C63.7295 5.248 64.3455 5.36 64.7775 5.584C65.2095 5.808 65.5135 6.088 65.6895 6.424C65.8815 6.76 65.9935 7.104 66.0255 7.456C66.0735 7.792 66.0975 8.08 66.0975 8.32V12.928C66.0975 13.216 66.0735 13.536 66.0255 13.888C65.9935 14.24 65.8815 14.576 65.6895 14.896C65.4975 15.216 65.1855 15.48 64.7535 15.688C64.3215 15.896 63.7135 16 62.9295 16H56.3055ZM57.2175 13.936H62.0175C62.8015 13.936 63.1935 13.616 63.1935 12.976V8.272C63.1935 7.632 62.8015 7.312 62.0175 7.312H57.2175C56.4495 7.312 56.0655 7.632 56.0655 8.272V12.976C56.0655 13.616 56.4495 13.936 57.2175 13.936ZM71.8971 16C71.1131 16 70.4971 15.896 70.0491 15.688C69.6171 15.48 69.3051 15.216 69.1131 14.896C68.9371 14.576 68.8251 14.24 68.7771 13.888C68.7451 13.536 68.7291 13.216 68.7291 12.928V5.248H71.6571V12.976C71.6411 13.328 71.7531 13.576 71.9931 13.72C72.2491 13.864 72.5211 13.936 72.8091 13.936H77.5611C77.9131 13.936 78.1211 13.904 78.1851 13.84C78.2491 13.776 78.2811 13.568 78.2811 13.216V5.248H81.2091V16H79.2411L78.3291 15.52C77.6891 15.648 76.9291 15.76 76.0491 15.856C75.1851 15.952 74.2091 16 73.1211 16H71.8971ZM88.2566 16C87.0406 16 86.2086 15.744 85.7606 15.232C85.3126 14.72 85.0886 13.952 85.0886 12.928V7.312H83.1206V5.248H84.1286C84.4326 5.248 84.6486 5.2 84.7766 5.104C84.9206 5.008 85.0246 4.816 85.0886 4.528L85.5686 1.96H88.0166V5.248H93.0086V7.312H88.0166V12.952C88.0166 13.352 88.1126 13.616 88.3046 13.744C88.4966 13.872 88.7846 13.936 89.1686 13.936H92.5526L92.7926 15.76C92.4566 15.808 91.9446 15.864 91.2566 15.928C90.5686 15.976 89.8166 16 89.0006 16H88.2566ZM95.1722 16V2.704L94.9322 0.784H98.1002V16H95.1722ZM103.907 16C103.107 16 102.491 15.896 102.059 15.688C101.627 15.48 101.315 15.216 101.123 14.896C100.947 14.576 100.835 14.24 100.787 13.888C100.755 13.536 100.739 13.216 100.739 12.928V8.32C100.739 8.08 100.755 7.792 100.787 7.456C100.835 7.104 100.947 6.76 101.123 6.424C101.315 6.088 101.627 5.808 102.059 5.584C102.507 5.36 103.123 5.248 103.907 5.248H109.067C110.123 5.248 110.947 5.352 111.539 5.56C112.147 5.752 112.571 6.072 112.811 6.52C113.067 6.968 113.195 7.568 113.195 8.32V11.872H108.995C107.555 11.872 106.379 11.84 105.467 11.776C104.571 11.712 103.971 11.672 103.667 11.656V12.976C103.651 13.616 104.035 13.936 104.819 13.936H106.043C106.907 13.936 107.747 13.928 108.563 13.912C109.395 13.88 110.155 13.848 110.843 13.816C111.531 13.768 112.083 13.728 112.499 13.696L113.459 15.256C113.459 15.752 111.883 16 108.731 16H103.907ZM103.667 9.808H110.267V8.272C110.267 7.952 110.227 7.728 110.147 7.6C110.083 7.472 109.875 7.392 109.523 7.36C109.171 7.328 108.571 7.312 107.723 7.312H104.819C104.051 7.312 103.667 7.632 103.667 8.272V9.808ZM120.038 16C118.822 16 117.99 15.744 117.542 15.232C117.094 14.72 116.87 13.952 116.87 12.928V7.312H114.902V5.248H115.91C116.214 5.248 116.43 5.2 116.558 5.104C116.702 5.008 116.806 4.816 116.87 4.528L117.35 1.96H119.798V5.248H124.79V7.312H119.798V12.952C119.798 13.352 119.894 13.616 120.086 13.744C120.278 13.872 120.566 13.936 120.95 13.936H124.334L124.574 15.76C124.238 15.808 123.726 15.864 123.038 15.928C122.35 15.976 121.598 16 120.782 16H120.038Z" fill="white"/>
</svg>
